<mxfile host="65bd71144e">
    <diagram id="js2nl5Gf9NYXSrSAkuoX" name="Page-1">
        <mxGraphModel dx="745" dy="562" grid="1" gridSize="10" guides="1" tooltips="1" connect="1" arrows="1" fold="1" page="1" pageScale="1" pageWidth="827" pageHeight="1169" background="#ffffff" math="0" shadow="0">
            <root>
                <mxCell id="0"/>
                <mxCell id="1" parent="0"/>
                <mxCell id="2" value="Gym" style="swimlane;" parent="1" vertex="1">
                    <mxGeometry x="80" y="40" width="200" height="200" as="geometry"/>
                </mxCell>
                <mxCell id="5" value="gym_address" style="text;html=1;align=center;verticalAlign=middle;resizable=0;points=[];autosize=1;strokeColor=none;fillColor=none;fontSize=14;" parent="2" vertex="1">
                    <mxGeometry x="33" y="80" width="100" height="20" as="geometry"/>
                </mxCell>
                <mxCell id="4" value="gym_name&amp;nbsp;" style="text;html=1;align=center;verticalAlign=middle;resizable=0;points=[];autosize=1;strokeColor=none;fillColor=none;fontSize=14;" parent="2" vertex="1">
                    <mxGeometry x="33" y="60" width="90" height="20" as="geometry"/>
                </mxCell>
                <mxCell id="6" value="gym_phoneNumber" style="text;html=1;align=center;verticalAlign=middle;resizable=0;points=[];autosize=1;strokeColor=none;fillColor=none;fontSize=14;" parent="2" vertex="1">
                    <mxGeometry x="32" y="100" width="140" height="20" as="geometry"/>
                </mxCell>
                <mxCell id="57" value="" style="ellipse;whiteSpace=wrap;html=1;fontSize=15;" vertex="1" parent="1">
                    <mxGeometry x="380" y="540" width="120" height="80" as="geometry"/>
                </mxCell>
                <mxCell id="28" value="" style="endArrow=none;html=1;fontSize=22;exitX=1;exitY=0.5;exitDx=0;exitDy=0;" edge="1" parent="1" source="8">
                    <mxGeometry width="50" height="50" relative="1" as="geometry">
                        <mxPoint x="430" y="340" as="sourcePoint"/>
                        <mxPoint x="600" y="140" as="targetPoint"/>
                    </mxGeometry>
                </mxCell>
                <mxCell id="66" value="1..N" style="edgeLabel;html=1;align=center;verticalAlign=middle;resizable=0;points=[];fontSize=15;" vertex="1" connectable="0" parent="28">
                    <mxGeometry x="-0.7611" y="-1" relative="1" as="geometry">
                        <mxPoint x="-2" y="-1" as="offset"/>
                    </mxGeometry>
                </mxCell>
                <mxCell id="67" value="1..N" style="edgeLabel;html=1;align=center;verticalAlign=middle;resizable=0;points=[];fontSize=15;" vertex="1" connectable="0" parent="28">
                    <mxGeometry x="0.7176" y="-1" relative="1" as="geometry">
                        <mxPoint x="-1" y="-1" as="offset"/>
                    </mxGeometry>
                </mxCell>
                <mxCell id="51" value="" style="ellipse;whiteSpace=wrap;html=1;fontSize=15;" vertex="1" parent="1">
                    <mxGeometry x="639" y="320" width="120" height="80" as="geometry"/>
                </mxCell>
                <mxCell id="36" value="" style="ellipse;whiteSpace=wrap;html=1;fontSize=15;" vertex="1" parent="1">
                    <mxGeometry x="380" y="100" width="120" height="80" as="geometry"/>
                </mxCell>
                <mxCell id="3" value="Members" style="swimlane;startSize=23;" parent="1" vertex="1">
                    <mxGeometry x="600" y="40" width="200" height="200" as="geometry"/>
                </mxCell>
                <mxCell id="9" value="member_id" style="text;html=1;align=center;verticalAlign=middle;resizable=0;points=[];autosize=1;strokeColor=none;fillColor=none;fontSize=14;" parent="3" vertex="1">
                    <mxGeometry x="31" y="60" width="90" height="20" as="geometry"/>
                </mxCell>
                <mxCell id="10" value="member_lastName" style="text;html=1;align=center;verticalAlign=middle;resizable=0;points=[];autosize=1;strokeColor=none;fillColor=none;fontSize=14;" parent="3" vertex="1">
                    <mxGeometry x="34" y="80" width="130" height="20" as="geometry"/>
                </mxCell>
                <mxCell id="11" value="member_firstName" style="text;html=1;align=center;verticalAlign=middle;resizable=0;points=[];autosize=1;strokeColor=none;fillColor=none;fontSize=14;" parent="3" vertex="1">
                    <mxGeometry x="35" y="100" width="130" height="20" as="geometry"/>
                </mxCell>
                <mxCell id="12" value="member_birthday" style="text;html=1;align=center;verticalAlign=middle;resizable=0;points=[];autosize=1;strokeColor=none;fillColor=none;fontSize=14;" parent="3" vertex="1">
                    <mxGeometry x="35" y="120" width="120" height="20" as="geometry"/>
                </mxCell>
                <mxCell id="13" value="member_gender&amp;nbsp;&amp;nbsp;" style="text;html=1;align=center;verticalAlign=middle;resizable=0;points=[];autosize=1;strokeColor=none;fillColor=none;fontSize=14;" parent="3" vertex="1">
                    <mxGeometry x="30" y="140" width="130" height="20" as="geometry"/>
                </mxCell>
                <mxCell id="63" value="" style="edgeStyle=none;html=1;fontSize=15;" edge="1" parent="1" source="7" target="51">
                    <mxGeometry relative="1" as="geometry"/>
                </mxCell>
                <mxCell id="7" value="Session" style="swimlane;" parent="1" vertex="1">
                    <mxGeometry x="600" y="480" width="200" height="200" as="geometry"/>
                </mxCell>
                <mxCell id="14" value="typeOfSport" style="text;html=1;align=center;verticalAlign=middle;resizable=0;points=[];autosize=1;strokeColor=none;fillColor=none;fontSize=14;" parent="7" vertex="1">
                    <mxGeometry x="34" y="60" width="90" height="20" as="geometry"/>
                </mxCell>
                <mxCell id="15" value="schedule" style="text;html=1;align=center;verticalAlign=middle;resizable=0;points=[];autosize=1;strokeColor=none;fillColor=none;fontSize=14;" parent="7" vertex="1">
                    <mxGeometry x="35" y="80" width="70" height="20" as="geometry"/>
                </mxCell>
                <mxCell id="16" value="capacity" style="text;html=1;align=center;verticalAlign=middle;resizable=0;points=[];autosize=1;strokeColor=none;fillColor=none;fontSize=14;" parent="7" vertex="1">
                    <mxGeometry x="32" y="100" width="70" height="20" as="geometry"/>
                </mxCell>
                <mxCell id="8" value="Coach" style="swimlane;" parent="1" vertex="1">
                    <mxGeometry x="80" y="480" width="200" height="200" as="geometry"/>
                </mxCell>
                <mxCell id="17" value="coach_lastName" style="text;html=1;align=center;verticalAlign=middle;resizable=0;points=[];autosize=1;strokeColor=none;fillColor=none;fontSize=14;" parent="8" vertex="1">
                    <mxGeometry x="33" y="60" width="120" height="20" as="geometry"/>
                </mxCell>
                <mxCell id="18" value="coach_firstName" style="text;html=1;align=center;verticalAlign=middle;resizable=0;points=[];autosize=1;strokeColor=none;fillColor=none;fontSize=14;" parent="8" vertex="1">
                    <mxGeometry x="33" y="80" width="120" height="20" as="geometry"/>
                </mxCell>
                <mxCell id="19" value="coach_age" style="text;html=1;align=center;verticalAlign=middle;resizable=0;points=[];autosize=1;strokeColor=none;fillColor=none;fontSize=14;" parent="8" vertex="1">
                    <mxGeometry x="35" y="100" width="80" height="20" as="geometry"/>
                </mxCell>
                <mxCell id="20" value="coach_speciality" style="text;html=1;align=center;verticalAlign=middle;resizable=0;points=[];autosize=1;strokeColor=none;fillColor=none;fontSize=14;" parent="8" vertex="1">
                    <mxGeometry x="32" y="120" width="120" height="20" as="geometry"/>
                </mxCell>
                <mxCell id="22" value="" style="endArrow=none;html=1;entryX=0;entryY=0.5;entryDx=0;entryDy=0;startArrow=none;" parent="1" target="3" edge="1" source="36">
                    <mxGeometry width="50" height="50" relative="1" as="geometry">
                        <mxPoint x="280" y="140" as="sourcePoint"/>
                        <mxPoint x="330" y="90" as="targetPoint"/>
                    </mxGeometry>
                </mxCell>
                <mxCell id="23" value="Register" style="edgeLabel;html=1;align=center;verticalAlign=middle;resizable=0;points=[];fontSize=22;" parent="22" vertex="1" connectable="0">
                    <mxGeometry x="0.1813" y="2" relative="1" as="geometry">
                        <mxPoint x="-119" y="2" as="offset"/>
                    </mxGeometry>
                </mxCell>
                <mxCell id="35" value="1..1" style="edgeLabel;html=1;align=center;verticalAlign=middle;resizable=0;points=[];fontSize=15;" vertex="1" connectable="0" parent="22">
                    <mxGeometry x="0.8625" y="-1" relative="1" as="geometry">
                        <mxPoint x="-23" y="-3" as="offset"/>
                    </mxGeometry>
                </mxCell>
                <mxCell id="24" value="" style="endArrow=none;html=1;fontSize=14;exitX=0.5;exitY=0;exitDx=0;exitDy=0;startArrow=none;" parent="1" source="51" edge="1">
                    <mxGeometry width="50" height="50" relative="1" as="geometry">
                        <mxPoint x="700" y="350" as="sourcePoint"/>
                        <mxPoint x="700" y="240" as="targetPoint"/>
                    </mxGeometry>
                </mxCell>
                <mxCell id="61" value="1..N" style="edgeLabel;html=1;align=center;verticalAlign=middle;resizable=0;points=[];fontSize=15;" vertex="1" connectable="0" parent="24">
                    <mxGeometry x="0.5251" relative="1" as="geometry">
                        <mxPoint y="2" as="offset"/>
                    </mxGeometry>
                </mxCell>
                <mxCell id="25" value="" style="endArrow=none;html=1;fontSize=14;entryX=0;entryY=0.5;entryDx=0;entryDy=0;startArrow=none;" parent="1" target="7" edge="1" source="57">
                    <mxGeometry width="50" height="50" relative="1" as="geometry">
                        <mxPoint x="280" y="580" as="sourcePoint"/>
                        <mxPoint x="330" y="530" as="targetPoint"/>
                    </mxGeometry>
                </mxCell>
                <mxCell id="30" value="Lead" style="edgeLabel;html=1;align=center;verticalAlign=middle;resizable=0;points=[];fontSize=22;" vertex="1" connectable="0" parent="25">
                    <mxGeometry x="0.1313" y="-2" relative="1" as="geometry">
                        <mxPoint x="-117" y="-2" as="offset"/>
                    </mxGeometry>
                </mxCell>
                <mxCell id="64" value="1..2" style="edgeLabel;html=1;align=center;verticalAlign=middle;resizable=0;points=[];fontSize=15;" vertex="1" connectable="0" parent="25">
                    <mxGeometry x="0.58" relative="1" as="geometry">
                        <mxPoint x="-14" y="-2" as="offset"/>
                    </mxGeometry>
                </mxCell>
                <mxCell id="26" value="" style="endArrow=none;html=1;fontSize=14;entryX=0.5;entryY=1;entryDx=0;entryDy=0;exitX=0.5;exitY=0;exitDx=0;exitDy=0;startArrow=none;" parent="1" source="46" target="2" edge="1">
                    <mxGeometry width="50" height="50" relative="1" as="geometry">
                        <mxPoint x="180" y="350" as="sourcePoint"/>
                        <mxPoint x="160" y="240" as="targetPoint"/>
                    </mxGeometry>
                </mxCell>
                <mxCell id="32" value="1..N" style="edgeLabel;html=1;align=center;verticalAlign=middle;resizable=0;points=[];fontSize=15;" vertex="1" connectable="0" parent="26">
                    <mxGeometry x="0.7167" y="-1" relative="1" as="geometry">
                        <mxPoint x="-2" y="10" as="offset"/>
                    </mxGeometry>
                </mxCell>
                <mxCell id="41" value="" style="endArrow=none;html=1;entryX=0;entryY=0.5;entryDx=0;entryDy=0;" edge="1" parent="1" target="36">
                    <mxGeometry width="50" height="50" relative="1" as="geometry">
                        <mxPoint x="280" y="140" as="sourcePoint"/>
                        <mxPoint x="600" y="140" as="targetPoint"/>
                    </mxGeometry>
                </mxCell>
                <mxCell id="42" value="1..N" style="edgeLabel;html=1;align=center;verticalAlign=middle;resizable=0;points=[];fontSize=15;" vertex="1" connectable="0" parent="41">
                    <mxGeometry x="-0.9" y="-1" relative="1" as="geometry">
                        <mxPoint x="21" y="-3" as="offset"/>
                    </mxGeometry>
                </mxCell>
                <mxCell id="46" value="" style="ellipse;whiteSpace=wrap;html=1;fontSize=15;" vertex="1" parent="1">
                    <mxGeometry x="120" y="320" width="120" height="80" as="geometry"/>
                </mxCell>
                <mxCell id="47" value="" style="endArrow=none;html=1;fontSize=14;entryX=0.5;entryY=1;entryDx=0;entryDy=0;exitX=0.5;exitY=0;exitDx=0;exitDy=0;" edge="1" parent="1" source="8" target="46">
                    <mxGeometry width="50" height="50" relative="1" as="geometry">
                        <mxPoint x="180" y="480" as="sourcePoint"/>
                        <mxPoint x="180" y="240" as="targetPoint"/>
                    </mxGeometry>
                </mxCell>
                <mxCell id="48" value="Works" style="edgeLabel;html=1;align=center;verticalAlign=middle;resizable=0;points=[];fontSize=22;" vertex="1" connectable="0" parent="47">
                    <mxGeometry x="-0.3" relative="1" as="geometry">
                        <mxPoint y="-92" as="offset"/>
                    </mxGeometry>
                </mxCell>
                <mxCell id="50" value="1..1" style="edgeLabel;html=1;align=center;verticalAlign=middle;resizable=0;points=[];fontSize=15;" vertex="1" connectable="0" parent="47">
                    <mxGeometry x="-0.7333" y="-1" relative="1" as="geometry">
                        <mxPoint x="-3" y="-12" as="offset"/>
                    </mxGeometry>
                </mxCell>
                <mxCell id="52" value="" style="endArrow=none;html=1;fontSize=14;exitX=0.5;exitY=0;exitDx=0;exitDy=0;" edge="1" parent="1" source="7" target="51">
                    <mxGeometry width="50" height="50" relative="1" as="geometry">
                        <mxPoint x="700" y="480" as="sourcePoint"/>
                        <mxPoint x="700" y="240" as="targetPoint"/>
                    </mxGeometry>
                </mxCell>
                <mxCell id="53" value="Attend" style="edgeLabel;html=1;align=center;verticalAlign=middle;resizable=0;points=[];fontSize=22;" vertex="1" connectable="0" parent="52">
                    <mxGeometry x="-0.25" y="-1" relative="1" as="geometry">
                        <mxPoint x="-1" y="-89" as="offset"/>
                    </mxGeometry>
                </mxCell>
                <mxCell id="62" value="1..20" style="edgeLabel;html=1;align=center;verticalAlign=middle;resizable=0;points=[];fontSize=15;" vertex="1" connectable="0" parent="52">
                    <mxGeometry x="-0.475" relative="1" as="geometry">
                        <mxPoint y="-2" as="offset"/>
                    </mxGeometry>
                </mxCell>
                <mxCell id="54" value="" style="ellipse;whiteSpace=wrap;html=1;fontSize=15;" vertex="1" parent="1">
                    <mxGeometry x="380" y="314" width="120" height="80" as="geometry"/>
                </mxCell>
                <mxCell id="56" value="Coach" style="edgeLabel;html=1;align=center;verticalAlign=middle;resizable=0;points=[];fontSize=22;" vertex="1" connectable="0" parent="1">
                    <mxGeometry x="439.90755859611704" y="354.20229074393126" as="geometry"/>
                </mxCell>
                <mxCell id="58" value="" style="endArrow=none;html=1;fontSize=14;entryX=0;entryY=0.5;entryDx=0;entryDy=0;" edge="1" parent="1" target="57">
                    <mxGeometry width="50" height="50" relative="1" as="geometry">
                        <mxPoint x="280" y="580" as="sourcePoint"/>
                        <mxPoint x="600" y="580" as="targetPoint"/>
                    </mxGeometry>
                </mxCell>
                <mxCell id="65" value="1..N" style="edgeLabel;html=1;align=center;verticalAlign=middle;resizable=0;points=[];fontSize=15;" vertex="1" connectable="0" parent="58">
                    <mxGeometry x="-0.6" relative="1" as="geometry">
                        <mxPoint x="12" y="-2" as="offset"/>
                    </mxGeometry>
                </mxCell>
            </root>
        </mxGraphModel>
    </diagram>
</mxfile>